<svg width="145" height="24" viewBox="0 0 145 24" fill="none" xmlns="http://www.w3.org/2000/svg">
<path d="M11.444 18L10.436 14.808H4.844L3.836 18H0.98L6.428 1.68H8.972L14.444 18H11.444ZM6.404 9.816L5.66 12.168H9.596L8.852 9.816L7.652 5.688L6.404 9.816ZM26.3197 19.224C26.3197 20.52 25.8077 21.528 24.7837 22.248C23.7757 22.984 22.3677 23.352 20.5597 23.352C19.7117 23.352 18.8157 23.256 17.8717 23.064C16.9277 22.872 16.0557 22.552 15.2557 22.104L16.0477 19.92C16.8157 20.304 17.5757 20.576 18.3277 20.736C19.0797 20.912 19.8157 21 20.5357 21C21.5437 21 22.3117 20.864 22.8397 20.592C23.3677 20.32 23.6317 19.96 23.6317 19.512C23.6317 18.824 23.2237 18.48 22.4077 18.48H19.5277C18.7437 18.48 18.1117 18.352 17.6317 18.096C17.1517 17.84 16.7997 17.512 16.5757 17.112C16.3517 16.696 16.2397 16.264 16.2397 15.816C16.2397 15.352 16.3357 14.92 16.5277 14.52C16.7357 14.104 17.0157 13.72 17.3677 13.368C16.7917 13.016 16.3277 12.544 15.9757 11.952C15.6397 11.36 15.4717 10.648 15.4717 9.816C15.4717 8.872 15.6717 8.088 16.0717 7.464C16.4717 6.84 17.0157 6.376 17.7037 6.072C18.4077 5.752 19.1837 5.592 20.0317 5.592H20.4397C20.7597 5.592 21.0717 5.616 21.3757 5.664C21.6797 5.696 21.9677 5.752 22.2397 5.832H26.5837V8.184L24.1837 7.8C24.4237 8.056 24.6077 8.376 24.7357 8.76C24.8797 9.128 24.9517 9.584 24.9517 10.128C24.9517 10.944 24.7437 11.648 24.3277 12.24C23.9277 12.816 23.3837 13.264 22.6957 13.584C22.0237 13.888 21.2717 14.04 20.4397 14.04H20.0317C19.7117 14.04 19.4077 14.016 19.1197 13.968C18.9437 14.16 18.8157 14.36 18.7357 14.568C18.6557 14.76 18.6157 14.944 18.6157 15.12C18.6157 15.68 18.9757 15.96 19.6957 15.96H22.6237C23.7277 15.96 24.6157 16.248 25.2877 16.824C25.9757 17.384 26.3197 18.184 26.3197 19.224ZM20.4397 11.784C20.9357 11.784 21.3677 11.616 21.7357 11.28C22.1197 10.944 22.3117 10.456 22.3117 9.816C22.3117 9.176 22.1197 8.688 21.7357 8.352C21.3677 8.016 20.9357 7.848 20.4397 7.848H20.0317C19.5197 7.848 19.0717 8.016 18.6877 8.352C18.3197 8.688 18.1357 9.176 18.1357 9.816C18.1357 10.456 18.3197 10.944 18.6877 11.28C19.0717 11.616 19.5197 11.784 20.0317 11.784H20.4397ZM37.8457 17.304C37.0137 17.64 36.2297 17.88 35.4937 18.024C34.7577 18.168 34.0617 18.24 33.4057 18.24C31.5977 18.24 30.2297 17.728 29.3017 16.704C28.3737 15.68 27.9097 14.32 27.9097 12.624V11.184C27.9097 10.048 28.1177 9.064 28.5337 8.232C28.9497 7.4 29.5417 6.752 30.3097 6.288C31.0777 5.824 31.9817 5.592 33.0217 5.592C33.8697 5.592 34.6617 5.768 35.3977 6.12C36.1497 6.456 36.7577 6.992 37.2217 7.728C37.7017 8.448 37.9417 9.376 37.9417 10.512C37.9417 10.848 37.9177 11.208 37.8697 11.592C37.8217 11.96 37.7417 12.352 37.6297 12.768H30.5737C30.6057 13.76 30.8537 14.504 31.3177 15C31.7817 15.496 32.5257 15.744 33.5497 15.744C34.0937 15.744 34.6537 15.68 35.2297 15.552C35.8217 15.424 36.4297 15.232 37.0537 14.976L37.8457 17.304ZM33.0217 7.92C32.2857 7.92 31.7097 8.16 31.2937 8.64C30.8937 9.104 30.6617 9.776 30.5977 10.656H35.2057C35.2217 10.576 35.2297 10.504 35.2297 10.44C35.2297 10.36 35.2297 10.288 35.2297 10.224C35.2297 9.456 35.0137 8.88 34.5817 8.496C34.1497 8.112 33.6297 7.92 33.0217 7.92ZM46.7133 8.16C46.3133 8.16 45.8573 8.256 45.3453 8.448C44.8333 8.64 44.2253 9.016 43.5213 9.576V18H40.7613V5.832H43.3773V7.464C44.1293 6.808 44.8413 6.336 45.5133 6.048C46.1853 5.744 46.8653 5.592 47.5533 5.592C48.7213 5.592 49.6093 5.968 50.2173 6.72C50.8253 7.456 51.1293 8.496 51.1293 9.84V18H48.3693V10.176C48.3693 8.832 47.8173 8.16 46.7133 8.16ZM61.5449 18V16.344C60.8089 17.08 60.1689 17.584 59.6249 17.856C59.0969 18.112 58.5449 18.24 57.9689 18.24C56.6569 18.24 55.6329 17.744 54.8969 16.752C54.1769 15.76 53.8169 14.368 53.8169 12.576V11.28C53.8169 9.536 54.2569 8.152 55.1369 7.128C56.0169 6.104 57.2889 5.592 58.9529 5.592C59.3689 5.592 59.7769 5.632 60.1769 5.712C60.5929 5.792 61.0009 5.904 61.4009 6.048V0.24H64.1609V18H61.5449ZM56.6489 12.576C56.6489 13.648 56.8249 14.432 57.1769 14.928C57.5449 15.424 58.0569 15.672 58.7129 15.672C59.0809 15.672 59.4729 15.568 59.8889 15.36C60.3049 15.136 60.8089 14.72 61.4009 14.112V8.544C60.6169 8.224 59.8969 8.064 59.2409 8.064C58.3129 8.064 57.6489 8.352 57.2489 8.928C56.8489 9.504 56.6489 10.288 56.6489 11.28V12.576ZM76.8198 18.12C76.0038 18.12 75.3478 17.952 74.8518 17.616C74.3718 17.28 74.0198 16.864 73.7958 16.368C73.1078 17.008 72.4438 17.48 71.8038 17.784C71.1638 18.088 70.4758 18.24 69.7398 18.24C68.6678 18.24 67.8758 17.896 67.3638 17.208C66.8678 16.52 66.6198 15.648 66.6198 14.592C66.6198 13.888 66.7478 13.272 67.0038 12.744C67.2758 12.2 67.7158 11.776 68.3238 11.472C68.9318 11.168 69.7638 11.016 70.8198 11.016C71.2358 11.016 71.6678 11.048 72.1158 11.112C72.5638 11.16 73.0118 11.224 73.4598 11.304V9.888C73.4598 9.216 73.2758 8.76 72.9078 8.52C72.5398 8.264 72.0438 8.136 71.4198 8.136C70.9398 8.136 70.4118 8.2 69.8358 8.328C69.2758 8.456 68.6678 8.656 68.0118 8.928L67.2198 6.576C68.8358 5.92 70.2998 5.592 71.6118 5.592C72.7958 5.592 73.7078 5.792 74.3478 6.192C75.0038 6.592 75.4598 7.12 75.7158 7.776C75.9718 8.432 76.0998 9.136 76.0998 9.888V14.568C76.0998 14.808 76.1638 15.04 76.2918 15.264C76.4358 15.472 76.7078 15.576 77.1078 15.576H77.3718V18.12H76.8198ZM69.2838 14.544C69.2838 14.976 69.3798 15.32 69.5718 15.576C69.7638 15.816 70.0438 15.936 70.4118 15.936C70.7798 15.936 71.1958 15.84 71.6598 15.648C72.1238 15.456 72.7238 15.008 73.4598 14.304V13.272C72.6278 13.128 71.8118 13.056 71.0118 13.056C70.3878 13.056 69.9398 13.184 69.6678 13.44C69.4118 13.696 69.2838 14.064 69.2838 14.544Z" fill="black"/>
<path d="M77.8239 4.44V1.68H89.8239V4.44H85.2639V18H82.3839V4.44H77.8239ZM99.491 17.304C98.659 17.64 97.875 17.88 97.139 18.024C96.403 18.168 95.707 18.24 95.051 18.24C93.243 18.24 91.875 17.728 90.947 16.704C90.019 15.68 89.555 14.32 89.555 12.624V11.184C89.555 10.048 89.763 9.064 90.179 8.232C90.595 7.4 91.187 6.752 91.955 6.288C92.723 5.824 93.627 5.592 94.667 5.592C95.515 5.592 96.307 5.768 97.043 6.12C97.795 6.456 98.403 6.992 98.867 7.728C99.347 8.448 99.587 9.376 99.587 10.512C99.587 10.848 99.563 11.208 99.515 11.592C99.467 11.96 99.387 12.352 99.275 12.768H92.219C92.251 13.76 92.499 14.504 92.963 15C93.427 15.496 94.171 15.744 95.195 15.744C95.739 15.744 96.299 15.68 96.875 15.552C97.467 15.424 98.075 15.232 98.699 14.976L99.491 17.304ZM94.667 7.92C93.931 7.92 93.355 8.16 92.939 8.64C92.539 9.104 92.307 9.776 92.243 10.656H96.851C96.867 10.576 96.875 10.504 96.875 10.44C96.875 10.36 96.875 10.288 96.875 10.224C96.875 9.456 96.659 8.88 96.227 8.496C95.795 8.112 95.275 7.92 94.667 7.92ZM108.359 8.16C107.959 8.16 107.503 8.256 106.991 8.448C106.479 8.64 105.871 9.016 105.167 9.576V18H102.407V5.832H105.023V7.464C105.775 6.808 106.487 6.336 107.159 6.048C107.831 5.744 108.511 5.592 109.199 5.592C110.367 5.592 111.255 5.968 111.863 6.72C112.471 7.456 112.775 8.496 112.775 9.84V18H110.015V10.176C110.015 8.832 109.463 8.16 108.359 8.16ZM122.014 8.16C121.614 8.16 121.158 8.256 120.646 8.448C120.134 8.64 119.526 9.016 118.822 9.576V18H116.062V5.832H118.678V7.464C119.43 6.808 120.142 6.336 120.814 6.048C121.486 5.744 122.166 5.592 122.854 5.592C124.022 5.592 124.91 5.968 125.518 6.72C126.126 7.456 126.43 8.496 126.43 9.84V18H123.67V10.176C123.67 8.832 123.118 8.16 122.014 8.16ZM132.55 3.528H129.646V0.671999H132.55V3.528ZM132.478 18H129.718V5.832H132.478V18ZM139.328 15.84C139.92 15.84 140.408 15.744 140.792 15.552C141.176 15.344 141.368 15.04 141.368 14.64C141.368 14.288 141.24 14.016 140.984 13.824C140.744 13.616 140.304 13.432 139.664 13.272L138.296 12.912C137.24 12.64 136.456 12.184 135.944 11.544C135.448 10.904 135.2 10.144 135.2 9.264C135.2 8.224 135.56 7.352 136.28 6.648C137 5.944 138.112 5.592 139.616 5.592C140.224 5.592 140.864 5.664 141.536 5.808C142.208 5.952 142.912 6.184 143.648 6.504L142.856 8.856C142.184 8.536 141.576 8.312 141.032 8.184C140.488 8.056 140.008 7.992 139.592 7.992C138.456 7.992 137.888 8.376 137.888 9.144C137.888 9.448 137.984 9.688 138.176 9.864C138.384 10.04 138.76 10.2 139.304 10.344L140.672 10.704C141.84 11.008 142.688 11.472 143.216 12.096C143.76 12.72 144.032 13.504 144.032 14.448C144.032 15.568 143.648 16.48 142.88 17.184C142.128 17.888 140.936 18.24 139.304 18.24C137.912 18.24 136.448 17.92 134.912 17.28L135.656 15C136.408 15.304 137.088 15.52 137.696 15.648C138.304 15.776 138.848 15.84 139.328 15.84Z" fill="#E36414"/>
</svg>
