<svg width="274" height="46" viewBox="0 0 274 46" fill="none" xmlns="http://www.w3.org/2000/svg">
<path d="M4.29678 21.2606C4.6826 18.0743 6.12521 15.1091 8.39414 12.839C10.6631 10.5688 13.6274 9.12453 16.8136 8.73695C16.889 8.72794 16.9655 8.73459 17.0383 8.75648C17.111 8.77837 17.1785 8.81503 17.2364 8.86417C17.2944 8.91331 17.3416 8.97387 17.3751 9.04207C17.4086 9.11027 17.4276 9.18465 17.4311 9.26055C17.4994 10.9351 17.2201 12.6056 16.6107 14.1668C16.0013 15.7281 15.0751 17.1461 13.8904 18.3315C12.7057 19.517 11.2883 20.4442 9.72751 21.0546C8.1667 21.665 6.49634 21.9454 4.82176 21.8782C4.74574 21.8749 4.67121 21.856 4.60284 21.8226C4.53448 21.7892 4.47375 21.742 4.42447 21.684C4.37518 21.626 4.3384 21.5585 4.31643 21.4856C4.29445 21.4128 4.28776 21.3362 4.29678 21.2606ZM32.2785 24.1204C32.1238 24.1204 31.9705 24.1108 31.8157 24.1108C30.1792 24.1087 28.5592 24.4376 27.0531 25.0777C25.5471 25.7179 24.186 26.656 23.0518 27.8357C21.9177 29.0154 21.0338 30.4124 20.4535 31.9425C19.8731 33.4726 19.6082 35.1043 19.6747 36.7394C19.6782 36.8153 19.6972 36.8897 19.7307 36.9579C19.7642 37.0261 19.8114 37.0867 19.8694 37.1358C19.9273 37.185 19.9948 37.2216 20.0676 37.2435C20.1403 37.2654 20.2168 37.2721 20.2923 37.263C23.4786 36.8754 26.4431 35.4309 28.7121 33.1605C30.981 30.89 32.4235 27.9246 32.8091 24.738C32.8181 24.662 32.8112 24.5849 32.7889 24.5117C32.7666 24.4385 32.7294 24.3707 32.6795 24.3126C32.6296 24.2546 32.5682 24.2075 32.4992 24.1744C32.4302 24.1413 32.355 24.123 32.2785 24.1204ZM21.6559 26.1029C22.987 24.7646 24.5704 23.7036 26.3143 22.9813C28.0582 22.259 29.9281 21.8897 31.8157 21.8948C31.9539 21.8948 32.1003 21.8948 32.2426 21.8948C32.3218 21.8976 32.4008 21.8834 32.474 21.853C32.5473 21.8227 32.6131 21.7769 32.6671 21.7188C32.7211 21.6608 32.762 21.5918 32.7869 21.5165C32.8119 21.4413 32.8204 21.3616 32.8118 21.2827C32.4309 18.0847 30.9857 15.1076 28.7085 12.8302C26.4313 10.5527 23.4544 9.10715 20.2564 8.7259C20.1775 8.71732 20.0978 8.72581 20.0225 8.75078C19.9473 8.77575 19.8783 8.81662 19.8202 8.87061C19.7622 8.92461 19.7164 8.99046 19.6861 9.0637C19.6557 9.13694 19.6415 9.21586 19.6443 9.29509C19.7072 11.2543 19.3673 13.2056 18.6459 15.0282C17.9244 16.8509 16.8367 18.5061 15.45 19.8915C14.1193 21.2308 12.5361 22.2929 10.7922 23.0162C9.0482 23.7394 7.17809 24.1096 5.2901 24.1052C5.15195 24.1052 5.00551 24.1052 4.86321 24.1052C4.78398 24.1024 4.70506 24.1166 4.63182 24.147C4.55857 24.1773 4.49272 24.2231 4.43873 24.2811C4.38473 24.3392 4.34386 24.4082 4.31889 24.4834C4.29392 24.5587 4.28544 24.6384 4.29401 24.7173C4.67492 27.9153 6.12015 30.8924 8.39736 33.1698C10.6746 35.4473 13.6515 36.8928 16.8495 37.2741C16.9283 37.2827 17.008 37.2742 17.0833 37.2492C17.1585 37.2242 17.2275 37.1834 17.2856 37.1294C17.3436 37.0754 17.3894 37.0095 17.4197 36.9363C17.4501 36.863 17.4643 36.7841 17.4615 36.7049C17.3979 34.7448 17.7373 32.7924 18.4588 30.9688C19.1803 29.1452 20.2684 27.489 21.6559 26.1029Z" fill="#FF6B00"/>
<path d="M42.1312 38L51.2501 9.69422H57.3982L66.5171 38H61.1118L59.3788 32.4296H48.9395L47.2477 38H42.1312ZM50.3836 27.7257H57.9346L55.0875 18.2767C54.95 17.7816 54.8124 17.2314 54.6749 16.6262C54.5374 16.0211 54.4273 15.5122 54.3448 15.0995C54.2898 14.6594 54.2623 14.4394 54.2623 14.4394H54.0972C54.0972 14.4394 54.056 14.6732 53.9734 15.1408C53.8909 15.5809 53.7809 16.1036 53.6433 16.7088C53.5333 17.3139 53.4095 17.8366 53.272 18.2767L50.3836 27.7257ZM71.9966 45.5097C70.6762 45.5097 69.5484 45.0421 68.6131 44.1068C67.6778 43.199 67.2102 42.0024 67.2102 40.517C67.2102 39.4442 67.4715 38.5502 67.9942 37.835C68.5443 37.1197 69.2045 36.5421 69.9747 36.1019C69.4521 35.7718 69.0257 35.3317 68.6956 34.7816C68.393 34.2314 68.2417 33.585 68.2417 32.8422C68.2417 31.8795 68.5581 31.0817 69.1908 30.449C69.8234 29.8164 70.5662 29.3487 71.4189 29.0461C70.5662 28.4134 69.906 27.602 69.4383 26.6117C68.9982 25.5939 68.7781 24.4523 68.7781 23.1869C68.7781 20.9588 69.4658 19.1707 70.8412 17.8228C72.2167 16.475 74.1972 15.801 76.783 15.801C78.1859 15.801 79.3963 16.0073 80.414 16.4199C81.2393 15.8148 81.7895 15.1408 82.0645 14.3981C82.3671 13.6279 82.5184 13.0502 82.5184 12.6651H86.6034C86.6034 14.2055 86.287 15.4296 85.6543 16.3374C85.0492 17.2452 84.1964 17.8641 83.0961 18.1942C83.6462 18.7994 84.0726 19.5283 84.3752 20.3811C84.6778 21.2338 84.8291 22.1691 84.8291 23.1869C84.8291 25.4151 84.1414 27.2031 82.766 28.551C81.3906 29.8989 79.3963 30.5728 76.783 30.5728H74.7199C74.2798 30.5728 73.9221 30.6966 73.6471 30.9442C73.372 31.1918 73.2344 31.5081 73.2344 31.8932C73.2344 32.2508 73.3582 32.5534 73.6058 32.801C73.8534 33.0486 74.156 33.1723 74.5136 33.1723H82.0233C83.3987 33.1723 84.5678 33.6812 85.5305 34.699C86.4933 35.7168 86.9747 37.0922 86.9747 38.8252C86.9747 40.1731 86.6584 41.3422 86.0257 42.3325C85.393 43.3503 84.5403 44.1343 83.4674 44.6845C82.4221 45.2346 81.253 45.5097 79.9602 45.5097H71.9966ZM74.1835 41.7548H79.7539C80.3865 41.7548 80.9092 41.5623 81.3218 41.1772C81.7619 40.8196 81.982 40.3382 81.982 39.733C81.982 39.1003 81.7757 38.6052 81.3631 38.2476C80.978 37.9175 80.5103 37.7524 79.9602 37.7524H74.1835C73.6333 37.7524 73.1657 37.945 72.7806 38.3301C72.3955 38.7152 72.2029 39.1828 72.2029 39.733C72.2029 40.3382 72.3955 40.8196 72.7806 41.1772C73.1657 41.5623 73.6333 41.7548 74.1835 41.7548ZM76.783 26.9005C77.8283 26.9005 78.5985 26.5704 79.0937 25.9102C79.6163 25.25 79.8776 24.3423 79.8776 23.1869C79.8776 22.0316 79.6163 21.1238 79.0937 20.4636C78.5985 19.8034 77.8283 19.4733 76.783 19.4733C75.7652 19.4733 74.995 19.8034 74.4723 20.4636C73.9772 21.1238 73.7296 22.0316 73.7296 23.1869C73.7296 24.3423 73.9772 25.25 74.4723 25.9102C74.995 26.5704 75.7652 26.9005 76.783 26.9005ZM97.0004 38.4951C94.2221 38.4951 92.104 37.5874 90.6461 35.7718C89.2157 33.9288 88.5004 31.0542 88.5004 27.1481C88.5004 23.2419 89.2157 20.3811 90.6461 18.5656C92.104 16.7225 94.1671 15.801 96.8354 15.801C99.4486 15.801 101.402 16.7225 102.695 18.5656C104.015 20.3811 104.675 23.2419 104.675 27.1481V28.3859H93.6582C93.6857 30.3115 93.947 31.8107 94.4422 32.8835C94.9373 33.9288 95.7901 34.4515 97.0004 34.4515C97.8532 34.4515 98.5271 34.0939 99.0223 33.3786C99.5174 32.6359 99.765 31.6181 99.765 30.3253H104.675C104.675 33.1036 103.946 35.1667 102.488 36.5146C101.03 37.835 99.2011 38.4951 97.0004 38.4951ZM93.6995 24.7961H99.4762C99.4762 23.2282 99.2561 22.0178 98.816 21.1651C98.4033 20.2848 97.7432 19.8447 96.8354 19.8447C95.7901 19.8447 95.0199 20.2848 94.5247 21.1651C94.0571 22.0178 93.782 23.2282 93.6995 24.7961ZM108.308 38V16.2961H112.435L112.93 18.9782H113.177C113.728 18.1254 114.457 17.3827 115.364 16.75C116.272 16.1173 117.372 15.801 118.665 15.801C120.343 15.801 121.719 16.3237 122.791 17.369C123.892 18.4143 124.442 20.216 124.442 22.7743V38H119.491V24.1359C119.491 22.733 119.229 21.7427 118.707 21.1651C118.211 20.5874 117.524 20.2986 116.643 20.2986C115.681 20.2986 114.869 20.7249 114.209 21.5777C113.576 22.4029 113.26 23.4207 113.26 24.6311V38H108.308ZM135.375 38.4951C133.23 38.4951 131.524 37.5874 130.259 35.7718C129.021 33.9288 128.402 31.0405 128.402 27.1068C128.402 24.466 128.691 22.3204 129.269 20.6699C129.874 18.9919 130.685 17.7678 131.703 16.9976C132.721 16.1999 133.863 15.801 135.128 15.801C136.228 15.801 137.205 16.0348 138.057 16.5025C138.938 16.9701 139.57 17.644 139.956 18.5243H140.162V8.16752H145.113V38H140.987L140.492 35.318H140.286C139.763 36.3633 139.075 37.161 138.223 37.7112C137.37 38.2338 136.421 38.4951 135.375 38.4951ZM136.861 33.9976C138.071 33.9976 138.924 33.4749 139.419 32.4296C139.914 31.3843 140.162 29.8851 140.162 27.9321V26.4466C140.162 24.4935 139.914 22.9806 139.419 21.9078C138.924 20.835 138.071 20.2986 136.861 20.2986C135.678 20.2986 134.825 20.8212 134.303 21.8665C133.807 22.9118 133.56 24.411 133.56 26.3641V27.9321C133.56 29.8851 133.807 31.3843 134.303 32.4296C134.825 33.4749 135.678 33.9976 136.861 33.9976ZM153.406 38.4951C152.911 38.4951 152.347 38.4126 151.714 38.2476C151.082 38.0825 150.476 37.7799 149.899 37.3398C149.349 36.8997 148.881 36.2807 148.496 35.483C148.138 34.6853 147.959 33.6537 147.959 32.3884C147.959 30.4353 148.413 28.9086 149.321 27.8083C150.256 26.7079 151.535 25.9377 153.158 25.4976C154.781 25.03 156.638 24.7961 158.729 24.7961V22.5267C158.729 21.784 158.591 21.1513 158.316 20.6287C158.041 20.106 157.422 19.8447 156.459 19.8447C155.442 19.8447 154.754 20.0923 154.396 20.5874C154.039 21.0825 153.86 21.5914 153.86 22.1141V22.733H149.032C149.005 22.5955 148.991 22.458 148.991 22.3204C148.991 22.1829 148.991 22.0178 148.991 21.8253C148.991 20.0097 149.651 18.5518 150.972 17.4515C152.319 16.3512 154.107 15.801 156.336 15.801C158.866 15.801 160.723 16.3649 161.906 17.4927C163.116 18.5931 163.722 20.161 163.722 22.1966V32.8835C163.722 33.4062 163.845 33.7775 164.093 33.9976C164.34 34.2176 164.602 34.3277 164.877 34.3277H165.867V37.835C165.592 37.9725 165.221 38.11 164.753 38.2476C164.285 38.4126 163.68 38.4951 162.938 38.4951C161.947 38.4951 161.122 38.2338 160.462 37.7112C159.802 37.1885 159.348 36.5008 159.1 35.6481H158.894C158.289 36.5008 157.587 37.1885 156.789 37.7112C155.992 38.2338 154.864 38.4951 153.406 38.4951ZM155.469 34.3689C156.267 34.3689 156.9 34.1489 157.367 33.7087C157.835 33.2686 158.179 32.6909 158.399 31.9757C158.619 31.2605 158.729 30.4765 158.729 29.6238V28.3859C157.766 28.3859 156.845 28.496 155.964 28.716C155.112 28.9086 154.41 29.2662 153.86 29.7888C153.31 30.284 153.035 30.9992 153.035 31.9345C153.035 32.6772 153.227 33.2686 153.612 33.7087C153.997 34.1489 154.616 34.3689 155.469 34.3689Z" fill="#101828"/>
<path d="M173.916 38V14.3981H166.901V9.69422H186.212V14.3981H179.197V38H173.916ZM194.192 38.4951C191.414 38.4951 189.296 37.5874 187.838 35.7718C186.407 33.9288 185.692 31.0542 185.692 27.1481C185.692 23.2419 186.407 20.3811 187.838 18.5656C189.296 16.7225 191.359 15.801 194.027 15.801C196.64 15.801 198.593 16.7225 199.886 18.5656C201.207 20.3811 201.867 23.2419 201.867 27.1481V28.3859H190.85C190.877 30.3115 191.139 31.8107 191.634 32.8835C192.129 33.9288 192.982 34.4515 194.192 34.4515C195.045 34.4515 195.719 34.0939 196.214 33.3786C196.709 32.6359 196.957 31.6181 196.957 30.3253H201.867C201.867 33.1036 201.138 35.1667 199.68 36.5146C198.222 37.835 196.393 38.4951 194.192 38.4951ZM190.891 24.7961H196.668C196.668 23.2282 196.448 22.0178 196.007 21.1651C195.595 20.2848 194.935 19.8447 194.027 19.8447C192.982 19.8447 192.211 20.2848 191.716 21.1651C191.249 22.0178 190.974 23.2282 190.891 24.7961ZM205.5 38V16.2961H209.626L210.121 18.9782H210.369C210.919 18.1254 211.648 17.3827 212.556 16.75C213.464 16.1173 214.564 15.801 215.857 15.801C217.535 15.801 218.91 16.3237 219.983 17.369C221.083 18.4143 221.633 20.216 221.633 22.7743V38H216.682V24.1359C216.682 22.733 216.421 21.7427 215.898 21.1651C215.403 20.5874 214.715 20.2986 213.835 20.2986C212.872 20.2986 212.061 20.7249 211.4 21.5777C210.768 22.4029 210.451 23.4207 210.451 24.6311V38H205.5ZM226.171 38V16.2961H230.298L230.793 18.9782H231.04C231.59 18.1254 232.319 17.3827 233.227 16.75C234.135 16.1173 235.235 15.801 236.528 15.801C238.206 15.801 239.582 16.3237 240.654 17.369C241.755 18.4143 242.305 20.216 242.305 22.7743V38H237.353V24.1359C237.353 22.733 237.092 21.7427 236.569 21.1651C236.074 20.5874 235.387 20.2986 234.506 20.2986C233.544 20.2986 232.732 20.7249 232.072 21.5777C231.439 22.4029 231.123 23.4207 231.123 24.6311V38H226.171ZM246.801 38V16.2961H251.753V38H246.801ZM246.76 12.9127V8.16752H251.753V12.9127H246.76ZM263.205 38.4951C261.554 38.4951 260.138 38.2063 258.955 37.6286C257.772 37.051 256.864 36.2532 256.231 35.2354C255.626 34.1901 255.324 32.9798 255.324 31.6044C255.324 31.4943 255.324 31.3843 255.324 31.2743C255.351 31.1642 255.365 31.1092 255.365 31.1092H260.399V31.3981C260.426 32.5534 260.756 33.3511 261.389 33.7913C262.022 34.2314 262.682 34.4515 263.37 34.4515C264.03 34.4515 264.676 34.2864 265.309 33.9563C265.942 33.5987 266.258 32.9798 266.258 32.0995C266.258 31.3293 265.997 30.7516 265.474 30.3665C264.979 29.9539 264.319 29.6376 263.494 29.4175C262.696 29.1699 261.843 28.9223 260.935 28.6748C260.055 28.4272 259.202 28.0833 258.377 27.6432C257.579 27.1756 256.919 26.5429 256.396 25.7452C255.901 24.9199 255.654 23.8058 255.654 22.4029C255.654 20.9175 255.998 19.6934 256.685 18.7306C257.373 17.7403 258.308 17.0114 259.491 16.5437C260.674 16.0486 261.981 15.801 263.411 15.801C264.786 15.801 266.024 16.0348 267.125 16.5025C268.252 16.9701 269.133 17.644 269.765 18.5243C270.426 19.4046 270.756 20.4636 270.756 21.7015C270.756 21.9215 270.742 22.1279 270.714 22.3204C270.714 22.513 270.714 22.623 270.714 22.6505H265.68V22.568C265.653 21.6052 265.419 20.9175 264.979 20.5049C264.566 20.0648 263.989 19.8447 263.246 19.8447C262.751 19.8447 262.311 19.941 261.926 20.1335C261.54 20.2986 261.238 20.5461 261.018 20.8762C260.798 21.1788 260.688 21.5502 260.688 21.9903C260.688 22.678 260.935 23.2007 261.43 23.5583C261.953 23.9159 262.613 24.2047 263.411 24.4248C264.236 24.6448 265.089 24.8787 265.969 25.1262C266.877 25.3463 267.73 25.6901 268.528 26.1578C269.353 26.5979 270.013 27.2444 270.508 28.0971C271.031 28.9223 271.292 30.0502 271.292 31.4806C271.292 33.2411 270.934 34.6303 270.219 35.6481C269.532 36.6659 268.569 37.3948 267.331 37.835C266.121 38.2751 264.745 38.4951 263.205 38.4951Z" fill="#FF6B00"/>
</svg>